<svg width="24" height="24" viewBox="0 0 24 24" fill="none" xmlns="http://www.w3.org/2000/svg">
    <path d="M23.0098 0H0.991419C0.653463 0 0.376953 0.276509 0.376953 0.614466C0.376953 0.952422 0.653463 1.22893 0.991419 1.22893H2.31764V23.3702C2.31764 23.5955 2.44053 23.8054 2.64023 23.913C2.83994 24.0205 3.0806 24.0102 3.27006 23.8822L5.93787 22.1054L8.61591 23.8873C8.82073 24.0256 9.09212 24.0256 9.29694 23.8873L11.9647 22.1105L14.6428 23.8925C14.8476 24.0307 15.119 24.0307 15.3238 23.8925L17.9916 22.1156L20.6697 23.8976C20.7721 23.9642 20.8899 24 21.0076 24C21.1049 24 21.2073 23.9744 21.2995 23.9283C21.4992 23.8208 21.6221 23.6108 21.6221 23.3855L21.6119 1.24429H23.0098C23.3477 1.24429 23.6242 0.967783 23.6242 0.629827C23.6242 0.291871 23.3477 0 23.0098 0ZM20.3983 22.2232L18.3347 20.8509C18.1299 20.7126 17.8585 20.7126 17.6537 20.8509L14.9859 22.6328L12.3078 20.8509C12.103 20.7126 11.8316 20.7126 11.6268 20.8509L8.95899 22.6277L6.28094 20.8509C6.07612 20.7126 5.80473 20.7126 5.59991 20.8509L3.54657 22.218V1.22381H20.3932L20.3983 22.2232Z" fill="#BFBFBF"/>
    <path d="M6.37325 9.81096H12.8098C13.1477 9.81096 13.4242 9.53445 13.4242 9.1965C13.4242 8.85854 13.1477 8.58203 12.8098 8.58203H6.37325C6.0353 8.58203 5.75879 8.85854 5.75879 9.1965C5.75879 9.53445 6.03018 9.81096 6.37325 9.81096Z" fill="#BFBFBF"/>
    <path d="M6.37325 11.9462H11.1968C11.5348 11.9462 11.8113 11.6697 11.8113 11.3318C11.8113 10.9938 11.5348 10.7173 11.1968 10.7173H6.37325C6.0353 10.7173 5.75879 10.9938 5.75879 11.3318C5.75879 11.6697 6.03018 11.9462 6.37325 11.9462Z" fill="#BFBFBF"/>
    <path d="M16.0256 9.81096H17.6334C17.9714 9.81096 18.2479 9.53445 18.2479 9.1965C18.2479 8.85854 17.9714 8.58203 17.6334 8.58203H16.0256C15.6876 8.58203 15.4111 8.85854 15.4111 9.1965C15.4111 9.53445 15.6825 9.81096 16.0256 9.81096Z" fill="#BFBFBF"/>
    <path d="M16.0256 11.9462H17.6334C17.9714 11.9462 18.2479 11.6697 18.2479 11.3318C18.2479 10.9938 17.9714 10.7173 17.6334 10.7173H16.0256C15.6876 10.7173 15.4111 10.9938 15.4111 11.3318C15.4111 11.6697 15.6825 11.9462 16.0256 11.9462Z" fill="#BFBFBF"/>
    <path d="M6.37325 4.87981H12.8098C13.1477 4.87981 13.4242 4.6033 13.4242 4.26534C13.4242 3.92739 13.1477 3.65088 12.8098 3.65088H6.37325C6.0353 3.65088 5.75879 3.92739 5.75879 4.26534C5.75879 4.6033 6.03018 4.87981 6.37325 4.87981Z" fill="#BFBFBF"/>
    <path d="M6.37325 7.01019H11.1968C11.5348 7.01019 11.8113 6.73368 11.8113 6.39572C11.8113 6.05776 11.5348 5.78125 11.1968 5.78125H6.37325C6.0353 5.78125 5.75879 6.05776 5.75879 6.39572C5.75879 6.73368 6.03018 7.01019 6.37325 7.01019Z" fill="#BFBFBF"/>
    <path d="M16.0256 4.87981H17.6334C17.9714 4.87981 18.2479 4.6033 18.2479 4.26534C18.2479 3.92739 17.9714 3.65088 17.6334 3.65088H16.0256C15.6876 3.65088 15.4111 3.92739 15.4111 4.26534C15.4111 4.6033 15.6825 4.87981 16.0256 4.87981Z" fill="#BFBFBF"/>
    <path d="M16.0256 7.01019H17.6334C17.9714 7.01019 18.2479 6.73368 18.2479 6.39572C18.2479 6.05776 17.9714 5.78125 17.6334 5.78125H16.0256C15.6876 5.78125 15.4111 6.05776 15.4111 6.39572C15.4111 6.73368 15.6825 7.01019 16.0256 7.01019Z" fill="#BFBFBF"/>
    <path d="M6.37325 14.8034H12.8098C13.1477 14.8034 13.4242 14.5269 13.4242 14.1889C13.4242 13.851 13.1477 13.5745 12.8098 13.5745H6.37325C6.0353 13.5745 5.75879 13.851 5.75879 14.1889C5.75879 14.5269 6.03018 14.8034 6.37325 14.8034Z" fill="#BFBFBF"/>
    <path d="M6.37325 16.9338H11.1968C11.5348 16.9338 11.8113 16.6573 11.8113 16.3193C11.8113 15.9813 11.5348 15.7048 11.1968 15.7048H6.37325C6.0353 15.7048 5.75879 15.9813 5.75879 16.3193C5.75879 16.6573 6.03018 16.9338 6.37325 16.9338Z" fill="#BFBFBF"/>
    <path d="M16.0256 14.8034H17.6334C17.9714 14.8034 18.2479 14.5269 18.2479 14.1889C18.2479 13.851 17.9714 13.5745 17.6334 13.5745H16.0256C15.6876 13.5745 15.4111 13.851 15.4111 14.1889C15.4111 14.5269 15.6825 14.8034 16.0256 14.8034Z" fill="#BFBFBF"/>
    <path d="M16.0256 16.9338H17.6334C17.9714 16.9338 18.2479 16.6573 18.2479 16.3193C18.2479 15.9813 17.9714 15.7048 17.6334 15.7048H16.0256C15.6876 15.7048 15.4111 15.9813 15.4111 16.3193C15.4111 16.6573 15.6825 16.9338 16.0256 16.9338Z" fill="#BFBFBF"/>
</svg>
