<svg width="104" height="64" viewBox="0 0 104 64" fill="none" xmlns="http://www.w3.org/2000/svg">
    <path fill-rule="evenodd" clip-rule="evenodd" d="M90 0C86.6863 0 84 2.68629 84 6H82C78.6863 6 76 8.68629 76 12C76 15.3137 78.6863 18 82 18H98C101.314 18 104 15.3137 104 12C104 8.68629 101.314 6 98 6H96C96 2.68629 93.3137 0 90 0ZM84 8C85.1046 8 86 7.10457 86 6C86 3.79086 87.7908 2 90 2C92.2092 2 94 3.79086 94 6C94 7.10457 94.8954 8 96 8H98C100.209 8 102 9.79086 102 12C102 14.2091 100.209 16 98 16H82C79.7908 16 78 14.2091 78 12C78 9.79086 79.7908 8 82 8H84Z" fill="#EEEEEE"/>
    <path fill-rule="evenodd" clip-rule="evenodd" d="M46 11C44.8954 11 44 11.8954 44 13V17C44 18.1046 44.8954 19 46 19H50C51.1046 19 52 18.1046 52 17V13C52 11.8954 51.1046 11 50 11H46ZM50 13H46V17H50V13Z" fill="#EEEEEE"/>
    <path fill-rule="evenodd" clip-rule="evenodd" d="M55 13C55 11.8954 55.8954 11 57 11H61C62.1046 11 63 11.8954 63 13V17C63 18.1046 62.1046 19 61 19H57C55.8954 19 55 18.1046 55 17V13ZM57 13H61V17H57V13Z" fill="#EEEEEE"/>
    <path fill-rule="evenodd" clip-rule="evenodd" d="M46 20C44.8954 20 44 20.8954 44 22V26C44 27.1046 44.8954 28 46 28H50C51.1046 28 52 27.1046 52 26V22C52 20.8954 51.1046 20 50 20H46ZM50 22H46V26H50V22Z" fill="#EEEEEE"/>
    <path fill-rule="evenodd" clip-rule="evenodd" d="M55 22C55 20.8954 55.8954 20 57 20H61C62.1046 20 63 20.8954 63 22V26C63 27.1046 62.1046 28 61 28H57C55.8954 28 55 27.1046 55 26V22ZM57 22H61V26H57V22Z" fill="#EEEEEE"/>
    <path fill-rule="evenodd" clip-rule="evenodd" d="M46 29C44.8954 29 44 29.8954 44 31V35C44 36.1046 44.8954 37 46 37H50C51.1046 37 52 36.1046 52 35V31C52 29.8954 51.1046 29 50 29H46ZM50 31H46V35H50V31Z" fill="#EEEEEE"/>
    <path fill-rule="evenodd" clip-rule="evenodd" d="M44 40C44 38.8954 44.8954 38 46 38H50C51.1046 38 52 38.8954 52 40V44C52 45.1046 51.1046 46 50 46H46C44.8954 46 44 45.1046 44 44V40ZM46 40H50V44H46V40Z" fill="#EEEEEE"/>
    <path fill-rule="evenodd" clip-rule="evenodd" d="M59 36C59 34.8954 59.8954 34 61 34H65C66.1046 34 67 34.8954 67 36V40C67 41.1046 66.1046 42 65 42H61C59.8954 42 59 41.1046 59 40V36ZM65 40H61V36H65V40Z" fill="#EEEEEE"/>
    <path fill-rule="evenodd" clip-rule="evenodd" d="M69 36C69 34.8954 69.8954 34 71 34H75C76.1046 34 77 34.8954 77 36V40C77 41.1046 76.1046 42 75 42H71C69.8954 42 69 41.1046 69 40V36ZM71 36H75V40H71V36Z" fill="#EEEEEE"/>
    <path fill-rule="evenodd" clip-rule="evenodd" d="M61 43C59.8954 43 59 43.8954 59 45V49C59 50.1046 59.8954 51 61 51H65C66.1046 51 67 50.1046 67 49V45C67 43.8954 66.1046 43 65 43H61ZM65 49V45H61V49H65Z" fill="#EEEEEE"/>
    <path fill-rule="evenodd" clip-rule="evenodd" d="M69 45C69 43.8954 69.8954 43 71 43H75C76.1046 43 77 43.8954 77 45V49C77 50.1046 76.1046 51 75 51H71C69.8954 51 69 50.1046 69 49V45ZM71 45H75V49H71V45Z" fill="#EEEEEE"/>
    <path fill-rule="evenodd" clip-rule="evenodd" d="M61 52C59.8954 52 59 52.8954 59 54V58C59 59.1046 59.8954 60 61 60H65C66.1046 60 67 59.1046 67 58V54C67 52.8954 66.1046 52 65 52H61ZM65 58V54H61V58H65Z" fill="#EEEEEE"/>
    <path fill-rule="evenodd" clip-rule="evenodd" d="M69 54C69 52.8954 69.8954 52 71 52H75C76.1046 52 77 52.8954 77 54V58C77 59.1046 76.1046 60 75 60H71C69.8954 60 69 59.1046 69 58V54ZM71 54H75V58H71V54Z" fill="#EEEEEE"/>
    <path fill-rule="evenodd" clip-rule="evenodd" d="M30.9667 64C30.4328 64 30 63.5672 30 63.0333C30 62.4995 30.4328 62.0667 30.9667 62.0667L40 62V7C40 6.46616 40.4662 6 41 6H66C66.5338 6 67 6.46616 67 7V29H81C81.5338 29 82 29.4662 82 30V43.6736C82.9093 43.2417 83.9264 43 85 43C88.866 43 92 46.134 92 50C92 53.5265 89.3923 56.4439 86 56.9291V62.053L87.0333 62.0667C87.5672 62.0667 88 62.4995 88 63.0333C88 63.5672 87.5672 64 87.0333 64H30.9667ZM50 52H46V62H50V52ZM52 62V52C52 50.8954 51.1046 50 50 50H46C44.8954 50 44 50.8954 44 52V62H42V8H65V29H55C54.4662 29 54 29.4662 54 30V62H52ZM84 62.0265V56.9291C83.2939 56.8281 82.6217 56.6217 82 56.3264V62L84 62.0265ZM80 54.899V62H56V31H80V45.101C78.7628 46.3636 78 48.0927 78 50C78 51.9073 78.7628 53.6364 80 54.899ZM90 50C90 52.7614 87.7614 55 85 55C83.8744 55 82.8357 54.6281 82 54.0004C81.9387 53.9543 81.8786 53.907 81.8195 53.8582C80.7083 52.9412 80 51.5533 80 50C80 48.3642 80.7856 46.9118 82 45.9996C82.8357 45.3719 83.8744 45 85 45C87.7614 45 90 47.2386 90 50Z" fill="#EEEEEE"/>
    <path fill-rule="evenodd" clip-rule="evenodd" d="M12 20C12 16.6863 14.6863 14 18 14C21.3137 14 24 16.6863 24 20C27.3137 20 30 22.6863 30 26C30 29.3137 27.3137 32 24 32H6C2.68628 32 0 29.3137 0 26C0 22.6863 2.68628 20 6 20H12ZM14 20C14 21.1046 13.1046 22 12 22H6C3.79085 22 2 23.7909 2 26C2 28.2091 3.79085 30 6 30H24C26.2091 30 28 28.2091 28 26C28 23.7909 26.2091 22 24 22C22.8954 22 22 21.1046 22 20C22 17.7909 20.2091 16 18 16C15.7909 16 14 17.7909 14 20Z" fill="#EEEEEE"/>
</svg>
