<svg width="232" height="29" viewBox="0 0 232 29" fill="none" xmlns="http://www.w3.org/2000/svg">
<path d="M3.652 23H0.592V0.427999H3.652V10.148H15.46V0.427999H18.52V23H15.46V12.956H3.652V23ZM39.0977 14.072C39.0977 17.432 38.4737 19.808 37.2257 21.2C36.0017 22.592 33.8897 23.288 30.8897 23.288C27.7937 23.288 25.6457 22.616 24.4457 21.272C23.2457 19.928 22.6457 17.528 22.6457 14.072C22.6457 10.688 23.2577 8.312 24.4817 6.944C25.7297 5.552 27.8657 4.856 30.8897 4.856C33.9857 4.856 36.1217 5.528 37.2977 6.872C38.4977 8.216 39.0977 10.616 39.0977 14.072ZM25.5977 14.036C25.5977 16.676 25.9457 18.428 26.6417 19.292C27.3377 20.132 28.7537 20.552 30.8897 20.552C32.9537 20.552 34.3457 20.108 35.0657 19.22C35.7857 18.308 36.1457 16.58 36.1457 14.036C36.1457 11.396 35.7977 9.656 35.1017 8.816C34.4297 7.952 33.0257 7.52 30.8897 7.52C28.8017 7.52 27.3977 7.964 26.6777 8.852C25.9577 9.74 25.5977 11.468 25.5977 14.036ZM48.7805 23.288C46.8125 23.288 45.3365 22.796 44.3525 21.812C43.3685 20.828 42.8765 19.352 42.8765 17.384V5.216H45.8285V17.024C45.8285 18.248 46.1405 19.136 46.7645 19.688C47.3885 20.24 48.3725 20.516 49.7165 20.516C50.5325 20.516 51.3485 20.42 52.1645 20.228C53.0045 20.012 53.8445 19.688 54.6845 19.256V5.216H57.6365V23H54.9365L54.7925 21.524H54.7205C53.4725 22.172 52.3925 22.628 51.4805 22.892C50.5685 23.156 49.6685 23.288 48.7805 23.288ZM68.5116 7.52C66.9756 7.52 65.9076 7.7 65.3076 8.06C64.7316 8.42 64.4436 9.152 64.4436 10.256C64.4436 10.832 64.5756 11.276 64.8396 11.588C65.1276 11.876 65.5716 12.068 66.1716 12.164L70.7436 12.848C72.1836 13.064 73.1916 13.52 73.7676 14.216C74.3436 14.888 74.6316 15.956 74.6316 17.42C74.6316 19.484 74.1396 20.984 73.1556 21.92C72.1716 22.832 70.5396 23.288 68.2596 23.288C66.8916 23.288 65.6196 23.216 64.4436 23.072C63.2676 22.928 62.2956 22.736 61.5276 22.496V19.724C62.2956 19.964 63.2316 20.168 64.3356 20.336C65.4636 20.48 66.6156 20.552 67.7916 20.552C69.2796 20.552 70.2996 20.336 70.8516 19.904C71.4036 19.472 71.6796 18.704 71.6796 17.6C71.6796 16.904 71.5236 16.4 71.2116 16.088C70.8996 15.752 70.3356 15.524 69.5196 15.404L64.9476 14.72C63.7956 14.552 62.9316 14.108 62.3556 13.388C61.8036 12.668 61.5156 11.624 61.4916 10.256C61.4916 8.384 62.0436 7.016 63.1476 6.152C64.2756 5.288 66.0036 4.856 68.3316 4.856C69.2916 4.856 70.1556 4.88 70.9236 4.928C71.7156 4.976 72.5436 5.072 73.4076 5.216V7.844C72.7836 7.748 72.0516 7.676 71.2116 7.628C70.3716 7.556 69.4716 7.52 68.5116 7.52ZM91.5679 19.544V22.028C90.9439 22.364 90.0199 22.664 88.7959 22.928C87.5959 23.168 86.3719 23.288 85.1239 23.288C82.3399 23.288 80.3479 22.568 79.1479 21.128C77.9479 19.688 77.3479 17.312 77.3479 14C77.3479 10.808 77.9719 8.492 79.2199 7.052C80.4679 5.588 82.4599 4.856 85.1959 4.856C87.7399 4.856 89.5639 5.432 90.6679 6.584C91.7719 7.712 92.3239 9.608 92.3239 12.272C92.3239 12.752 92.3119 13.196 92.2879 13.604C92.2639 14.012 92.2159 14.504 92.1439 15.08H80.3359C80.3599 17.048 80.7559 18.452 81.5239 19.292C82.3159 20.132 83.6719 20.552 85.5919 20.552C86.6239 20.552 87.7039 20.456 88.8319 20.264C89.9599 20.072 90.8719 19.832 91.5679 19.544ZM89.6239 11.876C89.5999 10.292 89.2519 9.176 88.5799 8.528C87.9079 7.856 86.7799 7.52 85.1959 7.52C83.4199 7.52 82.1599 7.904 81.4159 8.672C80.6959 9.416 80.3359 10.736 80.3359 12.632H89.5879C89.5879 12.584 89.5879 12.476 89.5879 12.308C89.6119 12.116 89.6239 11.972 89.6239 11.876ZM123.786 0.427999V23H120.906V5.216L114.462 18.5H111.834L105.39 5.18V23H102.51V0.427999H106.362L113.202 14.792L120.078 0.427999H123.786ZM132.799 23.288C130.975 23.288 129.631 22.856 128.767 21.992C127.927 21.104 127.507 19.712 127.507 17.816C127.507 15.896 128.023 14.54 129.055 13.748C130.087 12.932 131.839 12.524 134.311 12.524C135.127 12.524 135.931 12.56 136.723 12.632C137.515 12.704 138.259 12.812 138.955 12.956V11.228C138.955 9.908 138.619 8.96 137.947 8.384C137.275 7.808 136.195 7.52 134.707 7.52C133.603 7.52 132.631 7.568 131.791 7.664C130.951 7.736 130.111 7.868 129.271 8.06V5.504C130.231 5.264 131.203 5.096 132.187 5C133.195 4.904 134.335 4.856 135.607 4.856C137.743 4.856 139.327 5.36 140.359 6.368C141.391 7.352 141.907 8.888 141.907 10.976V23H139.207L139.063 21.344H138.991C138.271 21.92 137.335 22.388 136.183 22.748C135.055 23.108 133.927 23.288 132.799 23.288ZM134.635 14.936C133.003 14.936 131.863 15.14 131.215 15.548C130.591 15.932 130.279 16.628 130.279 17.636C130.279 18.692 130.543 19.46 131.071 19.94C131.599 20.396 132.463 20.624 133.663 20.624C134.599 20.624 135.559 20.48 136.543 20.192C137.527 19.904 138.331 19.544 138.955 19.112V15.296C138.163 15.176 137.419 15.092 136.723 15.044C136.051 14.972 135.355 14.936 134.635 14.936ZM149.473 23H146.521V5.216H149.077L149.221 6.944H149.329C150.289 6.224 151.285 5.696 152.317 5.36C153.373 5.024 154.549 4.856 155.845 4.856C157.813 4.856 159.301 5.348 160.309 6.332C161.341 7.316 161.857 8.768 161.857 10.688V23H158.905V11.048C158.905 9.848 158.569 8.96 157.897 8.384C157.225 7.808 156.193 7.52 154.801 7.52C153.937 7.52 153.049 7.664 152.137 7.952C151.249 8.216 150.361 8.612 149.473 9.14V23ZM170.486 23.288C168.662 23.288 167.318 22.856 166.454 21.992C165.614 21.104 165.194 19.712 165.194 17.816C165.194 15.896 165.71 14.54 166.742 13.748C167.774 12.932 169.526 12.524 171.998 12.524C172.814 12.524 173.618 12.56 174.41 12.632C175.202 12.704 175.946 12.812 176.642 12.956V11.228C176.642 9.908 176.306 8.96 175.634 8.384C174.962 7.808 173.882 7.52 172.394 7.52C171.29 7.52 170.318 7.568 169.478 7.664C168.638 7.736 167.798 7.868 166.958 8.06V5.504C167.918 5.264 168.89 5.096 169.874 5C170.882 4.904 172.022 4.856 173.294 4.856C175.43 4.856 177.014 5.36 178.046 6.368C179.078 7.352 179.594 8.888 179.594 10.976V23H176.894L176.75 21.344H176.678C175.958 21.92 175.022 22.388 173.87 22.748C172.742 23.108 171.614 23.288 170.486 23.288ZM172.322 14.936C170.69 14.936 169.55 15.14 168.902 15.548C168.278 15.932 167.966 16.628 167.966 17.636C167.966 18.692 168.23 19.46 168.758 19.94C169.286 20.396 170.15 20.624 171.35 20.624C172.286 20.624 173.246 20.48 174.23 20.192C175.214 19.904 176.018 19.544 176.642 19.112V15.296C175.85 15.176 175.106 15.092 174.41 15.044C173.738 14.972 173.042 14.936 172.322 14.936ZM191.444 28.832C190.244 28.832 189.116 28.748 188.06 28.58C187.028 28.436 186.176 28.232 185.504 27.968V25.34C186.056 25.556 186.86 25.736 187.916 25.88C188.996 26.024 190.064 26.096 191.12 26.096C192.92 26.096 194.168 25.736 194.864 25.016C195.56 24.32 195.908 23.072 195.908 21.272V20.156C195.02 20.684 194.072 21.092 193.064 21.38C192.056 21.644 191.036 21.776 190.004 21.776C187.628 21.776 185.924 21.116 184.892 19.796C183.884 18.476 183.38 16.316 183.38 13.316C183.38 10.268 184.028 8.096 185.324 6.8C186.644 5.504 188.876 4.856 192.02 4.856C193.148 4.856 194.36 4.928 195.656 5.072C196.952 5.192 198.02 5.348 198.86 5.54V20.444C198.86 23.564 198.308 25.736 197.204 26.96C196.1 28.208 194.18 28.832 191.444 28.832ZM192.02 7.52C189.716 7.52 188.192 7.916 187.448 8.708C186.704 9.5 186.332 11.036 186.332 13.316C186.332 15.476 186.644 16.976 187.268 17.816C187.916 18.632 189.152 19.04 190.976 19.04C191.768 19.04 192.584 18.932 193.424 18.716C194.288 18.476 195.116 18.152 195.908 17.744V7.916C195.332 7.796 194.708 7.7 194.036 7.628C193.388 7.556 192.716 7.52 192.02 7.52ZM216.935 19.544V22.028C216.311 22.364 215.387 22.664 214.163 22.928C212.963 23.168 211.739 23.288 210.491 23.288C207.707 23.288 205.715 22.568 204.515 21.128C203.315 19.688 202.715 17.312 202.715 14C202.715 10.808 203.339 8.492 204.587 7.052C205.835 5.588 207.827 4.856 210.563 4.856C213.107 4.856 214.931 5.432 216.035 6.584C217.139 7.712 217.691 9.608 217.691 12.272C217.691 12.752 217.679 13.196 217.655 13.604C217.631 14.012 217.583 14.504 217.511 15.08H205.703C205.727 17.048 206.123 18.452 206.891 19.292C207.683 20.132 209.039 20.552 210.959 20.552C211.991 20.552 213.071 20.456 214.199 20.264C215.327 20.072 216.239 19.832 216.935 19.544ZM214.991 11.876C214.967 10.292 214.619 9.176 213.947 8.528C213.275 7.856 212.147 7.52 210.563 7.52C208.787 7.52 207.527 7.904 206.783 8.672C206.063 9.416 205.703 10.736 205.703 12.632H214.955C214.955 12.584 214.955 12.476 214.955 12.308C214.979 12.116 214.991 11.972 214.991 11.876ZM224.461 23H221.509V5.216H224.209L224.353 6.728H224.497C225.433 6.176 226.369 5.768 227.305 5.504C228.241 5.216 229.165 5.072 230.077 5.072C230.461 5.072 230.713 5.072 230.833 5.072C230.977 5.072 231.085 5.084 231.157 5.108V7.952C230.989 7.904 230.773 7.88 230.509 7.88C230.269 7.856 229.885 7.844 229.357 7.844C228.493 7.844 227.641 7.952 226.801 8.168C225.985 8.36 225.205 8.66 224.461 9.068V23Z" fill="black"/>
</svg>
