<svg width="32" height="32" viewBox="0 0 32 32" fill="none" xmlns="http://www.w3.org/2000/svg">
<path d="M31.4667 30.9333H28.2667V13.3333C28.2667 13.0388 28.0279 12.8 27.7333 12.8H20.2667V0.533333C20.2667 0.2388 20.0279 0 19.7333 0H5.86667C5.57213 0 5.33333 0.2388 5.33333 0.533333V30.9333H0.533333C0.2388 30.9333 0 31.1721 0 31.4667C0 31.7612 0.2388 32 0.533333 32H31.4667C31.7612 32 32 31.7612 32 31.4667C32 31.1721 31.7612 30.9333 31.4667 30.9333ZM11.2 30.9333H9.06667V26.1333C9.06667 25.8388 9.30547 25.6 9.6 25.6H10.6667C10.9612 25.6 11.2 25.8388 11.2 26.1333V30.9333ZM13.3333 13.3333V30.9333H12.2667V26.1333C12.2667 25.2497 11.5503 24.5333 10.6667 24.5333H9.6C8.71633 24.5333 8 25.2497 8 26.1333V30.9333H6.4V1.06667H19.2V12.8H13.8667C13.5721 12.8 13.3333 13.0388 13.3333 13.3333ZM27.2 30.9333H14.4V13.8667H27.2V30.9333Z" fill="black"/>
<path d="M17.0663 7.46664H13.8663C13.5718 7.46664 13.333 7.70544 13.333 7.99998V11.2C13.333 11.4945 13.5718 11.7333 13.8663 11.7333H17.0663C17.3609 11.7333 17.5997 11.4945 17.5997 11.2V7.99998C17.5997 7.70544 17.3609 7.46664 17.0663 7.46664ZM16.533 10.6666H14.3997V8.53331H16.533V10.6666Z" fill="black"/>
<path d="M17.0663 2.13327H13.8663C13.5718 2.13327 13.333 2.37207 13.333 2.6666V5.8666C13.333 6.16114 13.5718 6.39994 13.8663 6.39994H17.0663C17.3609 6.39994 17.5997 6.16114 17.5997 5.8666V2.6666C17.5997 2.37207 17.3609 2.13327 17.0663 2.13327ZM16.533 5.33327H14.3997V3.19994H16.533V5.33327Z" fill="black"/>
<path d="M11.7333 7.46664H8.53333C8.2388 7.46664 8 7.70544 8 7.99998V11.2C8 11.4945 8.2388 11.7333 8.53333 11.7333H11.7333C12.0279 11.7333 12.2667 11.4945 12.2667 11.2V7.99998C12.2667 7.70544 12.0279 7.46664 11.7333 7.46664ZM11.2 10.6666H9.06667V8.53331H11.2V10.6666Z" fill="black"/>
<path d="M11.7333 2.13327H8.53333C8.2388 2.13327 8 2.37207 8 2.6666V5.8666C8 6.16114 8.2388 6.39994 8.53333 6.39994H11.7333C12.0279 6.39994 12.2667 6.16114 12.2667 5.8666V2.6666C12.2667 2.37207 12.0279 2.13327 11.7333 2.13327ZM11.2 5.33327H9.06667V3.19994H11.2V5.33327Z" fill="black"/>
<path d="M11.7333 12.8H8.53333C8.2388 12.8 8 13.0388 8 13.3334V16.5334C8 16.8279 8.2388 17.0667 8.53333 17.0667H11.7333C12.0279 17.0667 12.2667 16.8279 12.2667 16.5334V13.3334C12.2667 13.0388 12.0279 12.8 11.7333 12.8ZM11.2 16H9.06667V13.8667H11.2V16Z" fill="black"/>
<path d="M11.7333 18.1333H8.53333C8.2388 18.1333 8 18.3721 8 18.6666V21.8666C8 22.1611 8.2388 22.3999 8.53333 22.3999H11.7333C12.0279 22.3999 12.2667 22.1611 12.2667 21.8666V18.6666C12.2667 18.3721 12.0279 18.1333 11.7333 18.1333ZM11.2 21.3333H9.06667V19.1999H11.2V21.3333Z" fill="black"/>
<path d="M21.8663 24.5334H25.0663C25.3609 24.5334 25.5997 24.2946 25.5997 24V20.8C25.5997 20.5055 25.3609 20.2667 25.0663 20.2667H21.8663C21.5718 20.2667 21.333 20.5055 21.333 20.8V24C21.333 24.2946 21.5718 24.5334 21.8663 24.5334ZM22.3997 21.3334H24.533V23.4667H22.3997V21.3334Z" fill="black"/>
<path d="M21.8663 19.2H25.0663C25.3609 19.2 25.5997 18.9612 25.5997 18.6667V15.4667C25.5997 15.1721 25.3609 14.9333 25.0663 14.9333H21.8663C21.5718 14.9333 21.333 15.1721 21.333 15.4667V18.6667C21.333 18.9612 21.5718 19.2 21.8663 19.2ZM22.3997 16H24.533V18.1333H22.3997V16Z" fill="black"/>
<path d="M21.8663 29.8668H25.0663C25.3609 29.8668 25.5997 29.628 25.5997 29.3334V26.1334C25.5997 25.8389 25.3609 25.6001 25.0663 25.6001H21.8663C21.5718 25.6001 21.333 25.8389 21.333 26.1334V29.3334C21.333 29.628 21.5718 29.8668 21.8663 29.8668ZM22.3997 26.6668H24.533V28.8001H22.3997V26.6668Z" fill="black"/>
<path d="M16.5333 24.5334H19.7333C20.0279 24.5334 20.2667 24.2946 20.2667 24V20.8C20.2667 20.5055 20.0279 20.2667 19.7333 20.2667H16.5333C16.2388 20.2667 16 20.5055 16 20.8V24C16 24.2946 16.2388 24.5334 16.5333 24.5334ZM17.0667 21.3334H19.2V23.4667H17.0667V21.3334Z" fill="black"/>
<path d="M16.5333 19.2H19.7333C20.0279 19.2 20.2667 18.9612 20.2667 18.6667V15.4667C20.2667 15.1721 20.0279 14.9333 19.7333 14.9333H16.5333C16.2388 14.9333 16 15.1721 16 15.4667V18.6667C16 18.9612 16.2388 19.2 16.5333 19.2ZM17.0667 16H19.2V18.1333H17.0667V16Z" fill="black"/>
<path d="M16.5333 29.8668H19.7333C20.0279 29.8668 20.2667 29.628 20.2667 29.3334V26.1334C20.2667 25.8389 20.0279 25.6001 19.7333 25.6001H16.5333C16.2388 25.6001 16 25.8389 16 26.1334V29.3334C16 29.628 16.2388 29.8668 16.5333 29.8668ZM17.0667 26.6668H19.2V28.8001H17.0667V26.6668Z" fill="black"/>
</svg>
